<svg width="32" height="32" viewBox="0 0 32 32" fill="none" xmlns="http://www.w3.org/2000/svg">
<path d="M25.4262 6.57335L23.5462 8.45335C25.4662 10.3867 26.6662 13.0534 26.6662 16C26.6662 21.8934 21.8929 26.6667 15.9996 26.6667C10.1062 26.6667 5.33291 21.8934 5.33291 16C5.33291 10.56 9.39958 6.08002 14.6662 5.42669V8.12002C10.8796 8.76002 7.99958 12.04 7.99958 16C7.99958 20.4134 11.5862 24 15.9996 24C20.4129 24 23.9996 20.4134 23.9996 16C23.9996 13.7867 23.1062 11.7867 21.6529 10.3467L19.7729 12.2267C20.7329 13.2 21.3329 14.5334 21.3329 16C21.3329 18.9467 18.9462 21.3334 15.9996 21.3334C13.0529 21.3334 10.6662 18.9467 10.6662 16C10.6662 13.52 12.3729 11.4534 14.6662 10.8534V13.7067C13.8662 14.1734 13.3329 15.0134 13.3329 16C13.3329 17.4667 14.5329 18.6667 15.9996 18.6667C17.4662 18.6667 18.6662 17.4667 18.6662 16C18.6662 15.0134 18.1329 14.16 17.3329 13.7067V2.66669H15.9996C8.63958 2.66669 2.66624 8.64002 2.66624 16C2.66624 23.36 8.63958 29.3334 15.9996 29.3334C23.3596 29.3334 29.3329 23.36 29.3329 16C29.3329 12.32 27.8396 8.98669 25.4262 6.57335Z" fill="black" fill-opacity="0.87"/>
</svg>
