<svg width="32" height="32" viewBox="0 0 32 32" fill="none" xmlns="http://www.w3.org/2000/svg">
<path d="M15.9996 2.66669C8.63293 2.66669 2.66626 8.63335 2.66626 16C2.66626 23.3667 8.63293 29.3334 15.9996 29.3334C23.3663 29.3334 29.3329 23.3667 29.3329 16C29.3329 8.63335 23.3663 2.66669 15.9996 2.66669ZM17.8863 24.12V26.6667H14.3329V24.0934C12.0596 23.6067 10.1129 22.1467 9.97293 19.5534H12.5796C12.7129 20.9534 13.6729 22.04 16.1129 22.04C18.7329 22.04 19.3129 20.7334 19.3129 19.92C19.3129 18.82 18.7196 17.7734 15.7596 17.0667C12.4529 16.2734 10.1863 14.9067 10.1863 12.1734C10.1863 9.88669 12.0329 8.39335 14.3329 7.89335V5.33335H17.8863V7.92669C20.3663 8.53335 21.6063 10.4067 21.6929 12.44H19.0663C18.9929 10.96 18.2129 9.95335 16.1063 9.95335C14.1063 9.95335 12.9063 10.8534 12.9063 12.1467C12.9063 13.2734 13.7729 13.9934 16.4596 14.6934C19.1529 15.3934 22.0329 16.54 22.0329 19.9067C22.0329 22.34 20.1929 23.68 17.8863 24.12Z" fill="black" fill-opacity="0.87"/>
</svg>
