<svg width="98" height="98" viewBox="0 0 98 98" fill="none" xmlns="http://www.w3.org/2000/svg">
<circle cx="48.9995" cy="48.9998" r="49" fill="white"/>
<path d="M64.9995 64.1698V40.9998L52.9995 28.9998H36.9995C34.7895 28.9998 33.0195 30.7898 33.0195 32.9998L32.9995 64.9998C32.9995 67.2098 34.7695 68.9998 36.9795 68.9998H60.9995C61.8895 68.9998 62.7095 68.6998 63.3695 68.1998L54.4995 59.3298C52.9295 60.3798 51.0395 60.9998 48.9995 60.9998C43.4795 60.9998 38.9995 56.5198 38.9995 50.9998C38.9995 45.4798 43.4795 40.9998 48.9995 40.9998C54.5195 40.9998 58.9995 45.4798 58.9995 50.9998C58.9995 53.0398 58.3795 54.9298 57.3395 56.5098L64.9995 64.1698ZM42.9995 50.9998C42.9995 54.3098 45.6895 56.9998 48.9995 56.9998C52.3095 56.9998 54.9995 54.3098 54.9995 50.9998C54.9995 47.6898 52.3095 44.9998 48.9995 44.9998C45.6895 44.9998 42.9995 47.6898 42.9995 50.9998Z" fill="black" fill-opacity="0.87"/>
</svg>
