<svg width="99" height="98" viewBox="0 0 99 98" fill="none" xmlns="http://www.w3.org/2000/svg">
<circle cx="49.9905" cy="48.9998" r="49" fill="white"/>
<path d="M68.8105 48.1598L50.8205 30.1698C50.1005 29.4498 49.1005 28.9998 47.9905 28.9998H33.9905C31.7805 28.9998 29.9905 30.7898 29.9905 32.9998V46.9998C29.9905 48.1098 30.4405 49.1098 31.1705 49.8298L49.1705 67.8298C49.8905 68.5498 50.8905 68.9998 51.9905 68.9998C53.1005 68.9998 54.1005 68.5498 54.8205 67.8298L68.8205 53.8298C69.5405 53.0998 69.9905 52.0998 69.9905 50.9998C69.9905 49.8898 69.5405 48.8898 68.8105 48.1598ZM36.9905 38.9998C35.3305 38.9998 33.9905 37.6598 33.9905 35.9998C33.9905 34.3398 35.3305 32.9998 36.9905 32.9998C38.6505 32.9998 39.9905 34.3398 39.9905 35.9998C39.9905 37.6598 38.6505 38.9998 36.9905 38.9998ZM60.5305 55.5398L51.9905 64.0798L43.4505 55.5398C42.5505 54.6298 41.9905 53.3798 41.9905 51.9998C41.9905 49.2398 44.2305 46.9998 46.9905 46.9998C48.3705 46.9998 49.6305 47.5598 50.5305 48.4698L51.9905 49.9298L53.4505 48.4698C54.3605 47.5598 55.6105 46.9998 56.9905 46.9998C59.7505 46.9998 61.9905 49.2398 61.9905 51.9998C61.9905 53.3798 61.4305 54.6298 60.5305 55.5398Z" fill="black" fill-opacity="0.87"/>
</svg>
