<svg width="20" height="15" viewBox="0 0 20 15" fill="none" xmlns="http://www.w3.org/2000/svg">
<path d="M18.125 0C18.6328 0 19.0625 0.195312 19.4531 0.546875C19.8047 0.9375 20 1.36719 20 1.875V13.125C20 13.6719 19.8047 14.1016 19.4531 14.4531C19.0625 14.8438 18.6328 15 18.125 15H1.875C1.32812 15 0.898438 14.8438 0.546875 14.4531C0.15625 14.1016 0 13.6719 0 13.125V1.875C0 1.36719 0.15625 0.9375 0.546875 0.546875C0.898438 0.195312 1.32812 0 1.875 0H18.125ZM1.875 1.25C1.67969 1.25 1.52344 1.32812 1.40625 1.44531C1.28906 1.5625 1.25 1.71875 1.25 1.875V3.47656C2.14844 4.25781 4.10156 5.85938 7.14844 8.24219L7.5 8.55469C8.00781 9.02344 8.4375 9.33594 8.75 9.49219C9.21875 9.84375 9.64844 10 10 10C10.3125 10 10.7422 9.84375 11.25 9.49219C11.5234 9.33594 11.9141 9.02344 12.4609 8.55469L12.8516 8.24219C15.8594 5.85938 17.8125 4.25781 18.75 3.47656V1.875C18.75 1.71875 18.6719 1.5625 18.5547 1.44531C18.4375 1.32812 18.2812 1.25 18.125 1.25H1.875ZM18.125 13.75C18.2812 13.75 18.4375 13.7109 18.5547 13.5938C18.6719 13.4766 18.75 13.3203 18.75 13.125V5.11719C17.8125 5.85938 16.1328 7.22656 13.6328 9.21875L13.2422 9.53125C12.6172 10.0781 12.1094 10.4297 11.7578 10.6641C11.0938 11.0547 10.5078 11.25 10 11.25C9.45312 11.25 8.86719 11.0547 8.24219 10.6641C7.85156 10.4297 7.34375 10.0781 6.75781 9.53125L6.36719 9.21875C3.86719 7.22656 2.14844 5.85938 1.25 5.11719V13.125C1.25 13.3203 1.28906 13.4766 1.40625 13.5938C1.52344 13.7109 1.67969 13.75 1.875 13.75H18.125Z" fill="white"/>
</svg>
