<svg width="105" height="34" viewBox="0 0 105 34" fill="none" xmlns="http://www.w3.org/2000/svg">
<g clip-path="url(#clip0)">
<path d="M54.5649 15.5948C54.5649 17.5417 53.9566 19.0302 52.735 20.0603C51.5134 21.0904 49.7775 21.6079 47.5322 21.6079H45.8804V28.0351H42.0327V9.95618H47.824C50.0248 9.95618 51.6964 10.4293 52.8438 11.3708C53.9912 12.3171 54.5649 13.7218 54.5649 15.5948ZM45.8804 18.4633H47.1465C48.3285 18.4633 49.2137 18.2317 49.8022 17.7635C50.3908 17.3001 50.6826 16.62 50.6826 15.7278C50.6826 14.8308 50.4353 14.1654 49.9457 13.7366C49.4511 13.3078 48.6845 13.0958 47.6311 13.0958H45.8804V18.4633Z" fill="black"/>
<path d="M65.4304 13.9485C65.9447 13.9485 66.37 13.9879 66.7063 14.0619L66.4195 17.6008C66.1128 17.517 65.7419 17.4775 65.3018 17.4775C64.095 17.4775 63.1554 17.788 62.4778 18.4042C61.8052 19.0203 61.4689 19.8877 61.4689 21.0017V28.0351H57.6855V14.2097H61.1079V16.5361H61.2958C61.7261 15.7623 62.3047 15.1363 63.0367 14.6632C63.7736 14.1851 64.5698 13.9485 65.4304 13.9485Z" fill="black"/>
<path d="M81.8348 20.8489C81.8348 23.1014 81.2413 24.861 80.0494 26.1277C78.8575 27.3993 77.2008 28.0302 75.0741 28.0302C73.7438 28.0302 72.5667 27.7394 71.5529 27.1578C70.5341 26.5762 69.7527 25.7432 69.2087 24.6539C68.6647 23.5647 68.3877 22.298 68.3877 20.844C68.3877 18.5866 68.9812 16.827 70.1632 15.575C71.3452 14.3231 73.0069 13.6971 75.1533 13.6971C76.4836 13.6971 77.6607 13.9879 78.6745 14.5646C79.6884 15.1413 80.4747 15.9693 81.0188 17.0488C81.5628 18.1331 81.8348 19.3998 81.8348 20.8489ZM72.2453 20.8489C72.2453 22.2191 72.4728 23.2542 72.9228 23.9541C73.3729 24.6539 74.1098 25.0039 75.1236 25.0039C76.1325 25.0039 76.8595 24.6539 77.2997 23.959C77.7398 23.264 77.9624 22.224 77.9624 20.8489C77.9624 19.4787 77.7398 18.4535 77.2947 17.7684C76.8496 17.0833 76.1177 16.7432 75.0989 16.7432C74.09 16.7432 73.363 17.0833 72.9129 17.7634C72.4678 18.4436 72.2453 19.4737 72.2453 20.8489Z" fill="black"/>
<path d="M92.5767 28.0352C90.9496 28.0352 89.6687 27.4437 88.7438 26.2657V33.8709H84.9604V13.9633H88.5213L88.5707 15.7574H88.7438C89.6291 14.3872 90.9397 13.707 92.6756 13.707C94.3126 13.707 95.5935 14.3379 96.5233 15.5997C97.453 16.8615 97.913 18.6112 97.913 20.8538C97.913 22.3276 97.6954 23.6091 97.2602 24.6983C96.825 25.7876 96.2068 26.6157 95.4056 27.1825C94.6044 27.7493 93.6598 28.0352 92.5767 28.0352ZM91.4639 16.7185C90.5292 16.7185 89.8467 17.0044 89.4164 17.5762C88.9862 18.1479 88.7636 19.0942 88.7488 20.4152V20.8243C88.7488 22.3078 88.9713 23.3725 89.4115 24.0132C89.8516 24.654 90.5539 24.9793 91.5134 24.9793C93.2097 24.9793 94.0554 23.5844 94.0554 20.7996C94.0554 19.4393 93.8477 18.419 93.4273 17.7388C93.0119 17.0586 92.3541 16.7185 91.4639 16.7185Z" fill="black"/>
<path d="M100.88 10.6364C100.88 9.40907 101.568 8.79297 102.938 8.79297C104.308 8.79297 104.995 9.40907 104.995 10.6364C104.995 11.2229 104.822 11.6763 104.481 12.0016C104.14 12.3269 103.62 12.4896 102.938 12.4896C101.568 12.4896 100.88 11.8735 100.88 10.6364ZM104.827 28.0351H101.044V14.2098H104.827V28.0351Z" fill="black"/>
<path d="M29.8613 19.464C29.8514 19.4344 29.8465 19.4098 29.8366 19.3802C29.8316 19.3654 29.8217 19.3506 29.8168 19.3358C29.7031 19.0746 29.5151 18.8725 29.2827 18.7641L17.3638 10.7744C17.3638 10.7744 16.5824 10.183 16.0928 10.183C15.6032 10.183 14.8217 10.7744 14.8217 10.7744L2.83362 18.8331C2.81383 18.8429 2.799 18.8627 2.78416 18.8774C2.77427 18.8824 2.76438 18.8922 2.75943 18.9021C2.71492 18.9415 2.67041 18.981 2.63085 19.0253C2.6259 19.0352 2.61601 19.0401 2.61106 19.05C2.5715 19.0943 2.53688 19.1436 2.50721 19.1978C2.50226 19.2077 2.49237 19.2225 2.48742 19.2373C2.4627 19.2865 2.43797 19.3358 2.41819 19.3851C2.40829 19.4098 2.40335 19.4344 2.39346 19.4591C2.37862 19.5034 2.36378 19.5527 2.35389 19.602C2.34895 19.6316 2.344 19.6661 2.33906 19.6956C2.33411 19.74 2.32916 19.7844 2.32916 19.8287C2.32916 19.8435 2.32422 19.8583 2.32422 19.8681V26.8967C2.32422 27.5522 2.77921 28.0796 3.34301 28.0796H28.9068C29.4706 28.0796 29.9256 27.5473 29.9256 26.8967V20.0407C29.9454 19.8435 29.9207 19.6463 29.8613 19.464ZM23.5606 23.8556H8.69415C8.08584 23.8556 7.59128 23.3627 7.59128 22.7564V21.9826C7.59128 21.6179 7.77427 21.2778 8.07595 21.0708L15.4795 16.0927C15.8504 15.8413 16.34 15.8413 16.711 16.0927L24.1739 21.0954C24.4805 21.2975 24.6585 21.6425 24.6585 22.0073V22.7564C24.6585 23.3627 24.1689 23.8556 23.5606 23.8556Z" fill="#050505"/>
<path d="M31.6661 9.17257L17.5711 0.59146C17.5711 0.59146 16.6562 0 16.0825 0C15.5088 0 14.5939 0.59146 14.5939 0.59146L0.592885 9.6408C0.0241413 9.96611 -0.168737 10.6906 0.157672 11.2575L1.43858 13.4656C1.76499 14.0324 2.49199 14.2246 3.06074 13.8993L16.1072 5.40693L29.1982 13.4311C29.767 13.7564 30.494 13.5642 30.8204 12.9973L32.1013 10.7892C32.4277 10.2273 32.2348 9.5028 31.6661 9.17257Z" fill="#050505"/>
</g>
<defs>
<clipPath id="clip0">
<rect width="105" height="33.871" fill="white"/>
</clipPath>
</defs>
</svg>
