<svg width="138" height="45" viewBox="0 0 138 45" fill="none" xmlns="http://www.w3.org/2000/svg">
<g clip-path="url(#clip0)">
<path d="M71.7137 20.7188C71.7137 23.3054 70.9142 25.283 69.3088 26.6516C67.7033 28.0202 65.4218 28.7077 62.4708 28.7077H60.2999V37.2467H55.2429V13.2275H62.8543C65.7468 13.2275 67.9438 13.8562 69.4518 15.1069C70.9597 16.3642 71.7137 18.2304 71.7137 20.7188ZM60.2999 24.5299H61.9638C63.5173 24.5299 64.6808 24.2222 65.4543 23.6001C66.2278 22.9845 66.6113 22.0809 66.6113 20.8956C66.6113 19.7038 66.2863 18.8198 65.6428 18.2501C64.9928 17.6804 63.9853 17.3988 62.6008 17.3988H60.2999V24.5299Z" fill="white"/>
<path d="M85.9941 18.5317C86.6701 18.5317 87.2291 18.5841 87.6711 18.6824L87.2941 23.384C86.8911 23.2727 86.4036 23.2203 85.8251 23.2203C84.2391 23.2203 83.0041 23.6329 82.1136 24.4514C81.2297 25.27 80.7877 26.4225 80.7877 27.9024V37.2468H75.8152V18.8788H80.3132V21.9696H80.5602C81.1257 20.9415 81.8861 20.1099 82.8481 19.4812C83.8166 18.8461 84.8631 18.5317 85.9941 18.5317Z" fill="white"/>
<path d="M107.554 27.6994C107.554 30.692 106.774 33.0297 105.208 34.7127C103.641 36.4021 101.464 37.2403 98.669 37.2403C96.9205 37.2403 95.3735 36.854 94.041 36.0813C92.702 35.3086 91.675 34.2019 90.96 32.7547C90.245 31.3075 89.881 29.6246 89.881 27.6929C89.881 24.6937 90.661 22.356 92.2145 20.6927C93.768 19.0295 95.952 18.1978 98.773 18.1978C100.521 18.1978 102.068 18.5842 103.401 19.3503C104.733 20.1165 105.767 21.2166 106.482 22.6507C107.197 24.0913 107.554 25.7742 107.554 27.6994ZM94.951 27.6994C94.951 29.5198 95.25 30.895 95.8415 31.8249C96.433 32.7547 97.4015 33.2196 98.7339 33.2196C100.06 33.2196 101.015 32.7547 101.594 31.8314C102.172 30.9081 102.465 29.5264 102.465 27.6994C102.465 25.879 102.172 24.5169 101.587 23.6067C101.002 22.6965 100.04 22.2447 98.7015 22.2447C97.3755 22.2447 96.42 22.6965 95.8285 23.6002C95.2435 24.5038 94.951 25.8724 94.951 27.6994Z" fill="white"/>
<path d="M121.672 37.2468C119.534 37.2468 117.85 36.461 116.635 34.8959V45H111.662V18.5513H116.342L116.407 20.9349H116.635C117.798 19.1145 119.521 18.2108 121.802 18.2108C123.954 18.2108 125.637 19.049 126.859 20.7254C128.081 22.4017 128.686 24.7264 128.686 27.7059C128.686 29.6638 128.4 31.3664 127.828 32.8136C127.256 34.2607 126.443 35.3608 125.39 36.1139C124.337 36.867 123.096 37.2468 121.672 37.2468ZM120.21 22.2118C118.981 22.2118 118.084 22.5916 117.519 23.3512C116.953 24.1108 116.661 25.3681 116.641 27.1231V27.6666C116.641 29.6376 116.934 31.0521 117.512 31.9033C118.091 32.7546 119.014 33.1868 120.275 33.1868C122.504 33.1868 123.616 31.3336 123.616 27.6338C123.616 25.8265 123.343 24.471 122.79 23.5673C122.244 22.6637 121.38 22.2118 120.21 22.2118Z" fill="white"/>
<path d="M132.586 14.1313C132.586 12.5007 133.489 11.6822 135.29 11.6822C137.09 11.6822 137.994 12.5007 137.994 14.1313C137.994 14.9105 137.766 15.513 137.318 15.9451C136.869 16.3773 136.187 16.5934 135.29 16.5934C133.489 16.5934 132.586 15.7749 132.586 14.1313ZM137.773 37.2468H132.8V18.8788H137.773V37.2468Z" fill="white"/>
<path d="M39.2465 25.8593C39.2335 25.8201 39.227 25.7873 39.214 25.748C39.2075 25.7284 39.1945 25.7087 39.188 25.6891C39.0385 25.342 38.7915 25.0735 38.486 24.9295L22.8212 14.3147C22.8212 14.3147 21.7942 13.5289 21.1507 13.5289C20.5072 13.5289 19.4803 14.3147 19.4803 14.3147L3.72442 25.0212C3.69842 25.0343 3.67893 25.0604 3.65943 25.0801C3.64643 25.0866 3.63343 25.0997 3.62693 25.1128C3.56843 25.1652 3.50993 25.2176 3.45793 25.2765C3.45143 25.2896 3.43843 25.2962 3.43193 25.3093C3.37993 25.3682 3.33443 25.4337 3.29543 25.5057C3.28893 25.5188 3.27593 25.5385 3.26943 25.5581C3.23693 25.6236 3.20443 25.6891 3.17843 25.7546C3.16543 25.7873 3.15893 25.8201 3.14593 25.8528C3.12643 25.9117 3.10693 25.9772 3.09393 26.0427C3.08743 26.082 3.08093 26.1278 3.07443 26.1671C3.06793 26.226 3.06143 26.285 3.06143 26.3439C3.06143 26.3636 3.05493 26.3832 3.05493 26.3963V35.7342C3.05493 36.6051 3.65293 37.3058 4.39392 37.3058H37.9921C38.733 37.3058 39.331 36.5986 39.331 35.7342V26.6255C39.357 26.3636 39.3245 26.1016 39.2465 25.8593ZM30.9656 31.6939H11.4268C10.6274 31.6939 9.97736 31.0391 9.97736 30.2336V29.2055C9.97736 28.721 10.2179 28.2691 10.6144 27.9941L20.3447 21.3803C20.8322 21.0463 21.4757 21.0463 21.9632 21.3803L31.7716 28.0268C32.1746 28.2953 32.4086 28.7537 32.4086 29.2383V30.2336C32.4086 31.0391 31.7651 31.6939 30.9656 31.6939Z" fill="white"/>
<path d="M41.6188 12.1864L23.094 0.785797C23.094 0.785797 21.8915 0 21.1375 0C20.3835 0 19.181 0.785797 19.181 0.785797L0.779711 12.8085C0.0322186 13.2407 -0.221279 14.2033 0.207717 14.9563L1.8912 17.89C2.32019 18.643 3.27568 18.8984 4.02318 18.4662L21.17 7.1835L38.3753 17.8441C39.1228 18.2763 40.0783 18.021 40.5073 17.2679L42.1908 14.3343C42.6198 13.5877 42.3663 12.6251 41.6188 12.1864Z" fill="white"/>
</g>
<defs>
<clipPath id="clip0">
<rect width="138" height="45" fill="white"/>
</clipPath>
</defs>
</svg>
