<svg width="32" height="32" viewBox="0 0 32 32" fill="none" xmlns="http://www.w3.org/2000/svg">
<path d="M25.2262 8.01332C24.9529 7.22666 24.2062 6.66666 23.3329 6.66666H8.66624C7.79291 6.66666 7.04624 7.22666 6.77291 8.01332L3.99957 16V26.6667C3.99957 27.4 4.59957 28 5.33291 28H6.66624C7.40624 28 7.99957 27.4 7.99957 26.6667V25.3333H23.9996V26.6667C23.9996 27.4 24.5996 28 25.3329 28H26.6662C27.4062 28 27.9996 27.4 27.9996 26.6667V16L25.2262 8.01332ZM8.66624 21.3333C7.55957 21.3333 6.66624 20.44 6.66624 19.3333C6.66624 18.2267 7.55957 17.3333 8.66624 17.3333C9.77291 17.3333 10.6662 18.2267 10.6662 19.3333C10.6662 20.44 9.77291 21.3333 8.66624 21.3333ZM23.3329 21.3333C22.2262 21.3333 21.3329 20.44 21.3329 19.3333C21.3329 18.2267 22.2262 17.3333 23.3329 17.3333C24.4396 17.3333 25.3329 18.2267 25.3329 19.3333C25.3329 20.44 24.4396 21.3333 23.3329 21.3333ZM6.66624 14.6667L8.66624 8.66666H23.3329L25.3329 14.6667H6.66624Z" fill="black" fill-opacity="0.87"/>
</svg>
