<svg width="21" height="21" viewBox="0 0 21 21" fill="none" xmlns="http://www.w3.org/2000/svg">
<path d="M19.5625 20.0625C19.4844 20.2969 19.3672 20.5313 19.1328 20.7266C18.8984 20.8829 18.625 21 18.3906 21C15.1094 21 12.1016 20.1797 9.32812 18.5391C6.63281 16.9766 4.48438 14.8282 2.92188 12.1329C1.28125 9.35942 0.5 6.35161 0.5 3.10942C0.5 2.83598 0.578125 2.60161 0.773438 2.36723C0.929688 2.13286 1.16406 1.97661 1.4375 1.93755L5.38281 1.03911C5.65625 0.960985 5.92969 0.960985 6.20312 1.11723C6.4375 1.23442 6.63281 1.42973 6.78906 1.74223L8.58594 5.96098C8.66406 6.19536 8.70312 6.4688 8.625 6.74223C8.54688 6.97661 8.42969 7.21098 8.23438 7.4063L6.125 9.12505C6.78906 10.4532 7.64844 11.6641 8.74219 12.7579C9.79688 13.8125 11.0078 14.6719 12.375 15.375L14.0938 13.2657C14.25 13.0313 14.4844 12.9141 14.7578 12.836C14.9922 12.7579 15.2656 12.7969 15.5391 12.9141L19.7578 14.711C20.0312 14.8282 20.2266 15.0235 20.3828 15.2969C20.5 15.5313 20.5391 15.8047 20.4609 16.1172L19.5625 20.0625ZM1.75 3.14848C1.75 6.11723 2.49219 8.92974 4.01562 11.5079C5.46094 14.0079 7.45312 16 9.99219 17.4844C12.5312 18.9688 15.3047 19.75 18.3516 19.75L19.25 15.8438L15.0312 14.0469L12.7266 16.8985C10.6953 15.961 9.05469 14.8672 7.84375 13.6563C6.59375 12.4063 5.53906 10.8047 4.60156 8.77348L7.45312 6.4688L5.65625 2.25005L1.75 3.14848Z" fill="white" fill-opacity="0.87"/>
</svg>
