<svg width="32" height="32" viewBox="0 0 32 32" fill="none" xmlns="http://www.w3.org/2000/svg">
<path d="M17.9996 6.00002C19.4662 6.00002 20.6662 4.80002 20.6662 3.33335C20.6662 1.86669 19.4662 0.666687 17.9996 0.666687C16.5329 0.666687 15.3329 1.86669 15.3329 3.33335C15.3329 4.80002 16.5329 6.00002 17.9996 6.00002ZM13.1996 24.5334L14.4662 18.6667L17.3329 21.3334V29.3334H19.9996V19.2667L17.2662 16.5334L18.0662 12.5334C19.7996 14.6667 22.3996 16 25.3329 16V13.3334C22.8662 13.3334 20.7329 12 19.5329 10.0667L18.2662 7.93335C17.7996 7.13335 16.9329 6.66669 15.9996 6.66669C15.6662 6.66669 15.3329 6.73335 14.9996 6.86669L7.99957 9.73335V16H10.6662V11.5334L12.9996 10.6L10.9329 21.3334L4.39957 20.0667L3.86624 22.6667C3.86624 22.6667 13.1996 24.4667 13.1996 24.5334Z" fill="black" fill-opacity="0.87"/>
</svg>
