<svg width="270" height="248" viewBox="0 0 270 248" fill="none" xmlns="http://www.w3.org/2000/svg">
<path d="M7.66968 193.785L4.71279 195.592C4.34318 195.592 3.97357 195.592 3.60396 195.592L0.647081 193.785C0.27747 193.423 0.27747 193.423 0.647081 193.062L3.60396 191.255C3.97357 191.255 4.34318 191.255 4.71279 191.255L7.66968 192.7C8.03929 193.062 8.03929 193.423 7.66968 193.785Z" fill="black"/>
<path d="M14.692 197.761L11.7351 199.568C11.3655 199.568 10.9959 199.568 10.6263 199.568L7.66941 198.122C7.2998 197.399 7.2998 197.038 7.2998 197.038L10.2567 195.23C10.6263 195.23 10.9959 195.23 11.3655 195.23L14.3224 196.676C14.692 197.038 15.0616 197.399 14.692 197.761Z" fill="black"/>
<path d="M7.2998 201.736L4.34292 203.543C3.97331 203.543 3.6037 203.543 3.23409 203.543L0.277208 202.097C-0.0924026 201.736 -0.0924026 201.736 0.277208 201.375L3.23409 199.567C3.6037 199.567 3.97331 199.567 4.34292 199.567L7.2998 201.013C7.66941 201.375 7.66941 201.736 7.2998 201.736Z" fill="black"/>
<path d="M21.7148 201.736L18.758 203.543C18.3883 203.543 18.0187 203.543 17.6491 203.543L14.6922 201.736C14.3226 201.375 14.3226 201.375 14.6922 201.013L17.6491 199.206C18.0187 199.206 18.3883 199.206 18.758 199.206L21.7148 200.652C21.7148 201.013 21.7148 201.375 21.7148 201.736Z" fill="black"/>
<path d="M14.3225 205.712L11.3656 207.519C10.996 207.519 10.6264 207.519 10.2568 207.519L7.29991 205.712C6.9303 205.35 6.9303 205.35 7.29991 204.989L10.2568 203.182C10.6264 203.182 10.996 203.182 11.3656 203.182L14.3225 204.628C14.3225 205.35 14.6921 205.712 14.3225 205.712Z" fill="black"/>
<path d="M29.1064 205.712L26.1496 207.519C25.78 207.519 25.4103 207.519 25.0407 207.519L22.0838 205.712C21.7142 205.35 21.7142 205.35 22.0838 204.989L25.0407 203.182C25.4103 203.182 25.78 203.182 26.1496 203.182L29.1064 204.628C29.1064 205.35 29.1064 205.712 29.1064 205.712Z" fill="black"/>
<path d="M21.7148 210.049L18.758 211.856C18.3883 211.856 18.0187 211.856 17.6491 211.856L14.6922 210.049C14.3226 209.688 14.3226 209.688 14.6922 209.326L17.6491 207.519C18.0187 207.519 18.3883 207.519 18.758 207.519L21.7148 208.965C21.7148 209.326 22.0845 209.688 21.7148 210.049Z" fill="black"/>
<path d="M36.1294 209.688L33.1725 211.495C32.8029 211.495 32.4333 211.495 32.0637 211.495L29.1068 210.049C28.7372 209.688 28.7372 209.688 29.1068 209.326L32.0637 207.519C32.4333 207.519 32.8029 207.519 33.1725 207.519L36.1294 208.965C36.1294 209.326 36.1294 209.688 36.1294 209.688Z" fill="black"/>
<path d="M28.7373 214.025L25.7804 215.471C25.4108 215.471 25.0412 215.471 24.6716 215.471L21.7147 214.025C21.3451 213.664 21.3451 213.664 21.7147 213.302L24.6716 211.495C25.0412 211.495 25.4108 211.495 25.7804 211.495L28.7373 212.941C28.7373 213.302 28.7373 213.664 28.7373 214.025Z" fill="black"/>
<path d="M42.7825 213.664L39.8256 215.471C39.456 215.471 39.0864 215.471 38.7168 215.471L35.7599 214.025C35.3903 213.664 35.3903 213.664 35.7599 213.302L38.7168 211.495C39.0864 211.495 39.456 211.495 39.8256 211.495L42.7825 212.941C43.1521 213.302 43.1521 213.302 42.7825 213.664Z" fill="black"/>
<path d="M35.7598 217.639L32.8029 219.446C32.4333 219.446 32.0637 219.446 31.6941 219.446L28.7372 218.001C28.3676 217.639 28.3676 217.639 28.7372 217.278L31.6941 215.471C32.0637 215.471 32.4333 215.471 32.8029 215.471L35.7598 216.916C35.7598 217.278 35.7598 217.639 35.7598 217.639Z" fill="black"/>
<path d="M50.1748 217.639L47.2179 219.446C46.8483 219.446 46.4787 219.446 46.1091 219.446L43.1522 218.001C42.7826 217.639 42.7826 217.639 43.1522 217.278L46.1091 215.471C46.4787 215.471 46.8483 215.471 47.2179 215.471L50.1748 216.916C50.5444 217.278 50.5444 217.639 50.1748 217.639Z" fill="black"/>
<path d="M43.1521 221.976L40.1952 223.783C39.8256 223.783 39.456 223.783 39.0864 223.783L36.1295 222.338C35.7599 221.976 35.7599 221.976 36.1295 221.615L39.0864 219.808C39.456 219.808 39.8256 219.808 40.1952 219.808L43.1521 221.253C43.1521 221.615 43.1521 221.976 43.1521 221.976Z" fill="black"/>
<path d="M57.1975 221.615L54.2406 223.422C53.871 223.422 53.5014 223.422 53.1318 223.422L50.1749 221.976C49.8053 221.615 49.8053 221.615 50.1749 221.253L53.1318 219.446C53.5014 219.446 53.871 219.446 54.2406 219.446L57.1975 220.892C57.5671 221.253 57.5671 221.615 57.1975 221.615Z" fill="black"/>
<path d="M49.8047 225.952L46.8478 227.759C46.4782 227.759 46.1086 227.759 45.739 227.759L42.7821 226.314C42.4125 225.952 42.4125 225.952 42.7821 225.591L45.739 223.784C46.1086 223.784 46.4782 223.784 46.8478 223.784L49.8047 225.229C50.1743 225.591 50.1743 225.591 49.8047 225.952Z" fill="black"/>
<path d="M64.2195 225.591L61.2626 227.398C60.893 227.398 60.5234 227.398 60.1538 227.398L57.1969 225.952C56.8273 225.591 56.8273 225.591 57.1969 225.229L60.1538 223.422C60.5234 223.422 60.893 223.422 61.2626 223.422L64.2195 224.868C64.5891 225.229 64.5891 225.591 64.2195 225.591Z" fill="black"/>
<path d="M56.8276 229.928L53.8708 231.735C53.5011 231.735 53.1315 231.735 52.7619 231.735L49.805 230.29C49.4354 229.928 49.4354 229.928 49.805 229.567L52.7619 227.759C53.1315 227.759 53.5011 227.759 53.8708 227.759L56.8276 229.205C57.1972 229.205 57.1972 229.567 56.8276 229.928Z" fill="black"/>
<path d="M71.6121 229.928L68.6552 231.735C68.2856 231.735 67.916 231.735 67.5463 231.735L64.5895 230.29C64.2199 229.928 64.2199 229.928 64.5895 229.567L67.5463 227.759C67.916 227.759 68.2856 227.759 68.6552 227.759L71.6121 229.205C71.9817 229.567 71.9817 229.567 71.6121 229.928Z" fill="black"/>
<path d="M64.2195 233.904L61.2626 235.711C60.893 235.711 60.5234 235.711 60.1538 235.711L57.1969 234.265C56.8273 233.904 56.8273 233.904 57.1969 233.543L60.1538 231.735C60.5234 231.735 60.893 231.735 61.2626 231.735L64.2195 233.181C64.5891 233.543 64.5891 233.904 64.2195 233.904Z" fill="black"/>
<path d="M78.6348 233.904L75.6779 235.711C75.3083 235.711 74.9387 235.711 74.5691 235.711L71.6122 234.265C71.2426 233.904 71.2426 233.904 71.6122 233.543L74.5691 231.735C74.9387 231.735 75.3083 231.735 75.6779 231.735L78.6348 233.181C79.0044 233.181 79.0044 233.543 78.6348 233.904Z" fill="black"/>
<path d="M71.2422 237.879L68.2853 239.687C67.9157 239.687 67.5461 239.687 67.1765 239.687L64.2196 238.241C63.85 237.879 63.85 237.879 64.2196 237.518L67.1765 235.711C67.5461 235.711 67.9157 235.711 68.2853 235.711L71.2422 237.157C71.6118 237.518 71.6118 237.879 71.2422 237.879Z" fill="black"/>
<path d="M85.657 237.879L82.7001 239.687C82.3305 239.687 81.9609 239.687 81.5913 239.687L78.6344 238.241C78.2648 237.879 78.2648 237.879 78.6344 237.518L81.5913 235.711C81.9609 235.711 82.3305 235.711 82.7001 235.711L85.657 237.157C86.0266 237.157 86.0266 237.518 85.657 237.879Z" fill="black"/>
<path d="M78.2649 241.855L75.308 243.663C74.9384 243.663 74.5688 243.663 74.1992 243.663L71.2423 242.217C70.8727 241.855 70.8727 241.855 71.2423 241.494L74.1992 239.687C74.5688 239.687 74.9384 239.687 75.308 239.687L78.2649 241.133C78.6345 241.494 78.6345 241.855 78.2649 241.855Z" fill="black"/>
<path d="M93.0496 241.855L90.0927 243.663C89.7231 243.663 89.3535 243.663 88.9838 243.663L86.027 242.217C85.6574 241.855 85.6574 241.855 86.027 241.494L88.9838 239.687C89.3535 239.687 89.7231 239.687 90.0927 239.687L93.0496 241.133C93.4192 241.494 93.4192 241.855 93.0496 241.855Z" fill="black"/>
<path d="M85.657 246.193L82.7001 248C82.3305 248 81.9609 248 81.5913 248L78.6344 246.554C78.2648 246.193 78.2648 246.193 78.6344 245.831L81.5913 244.024C81.9609 244.024 82.3305 244.024 82.7001 244.024L85.657 245.47C86.0266 245.47 86.0266 245.831 85.657 246.193Z" fill="black"/>
<path d="M93.0496 233.904L90.0927 235.711C89.7231 235.711 89.3535 235.711 88.9838 235.711L86.027 234.265C85.6574 233.904 85.6574 233.904 86.027 233.543L88.9838 231.735C89.3535 231.735 89.7231 231.735 90.0927 231.735L93.0496 233.181C93.4192 233.181 93.4192 233.543 93.0496 233.904Z" fill="black"/>
<path d="M100.441 237.879L97.4845 239.687C97.1149 239.687 96.7453 239.687 96.3757 239.687L93.4188 238.241C93.0492 237.879 93.0492 237.879 93.4188 237.518L96.3757 235.711C96.7453 235.711 97.1149 235.711 97.4845 235.711L100.441 237.157C100.811 237.157 100.811 237.518 100.441 237.879Z" fill="black"/>
<path d="M107.834 233.543L104.877 235.35C104.507 235.35 104.138 235.35 103.768 235.35L100.811 233.904C100.442 233.543 100.442 233.543 100.811 233.181L103.768 231.374C104.138 231.374 104.507 231.374 104.877 231.374L107.834 232.82C108.203 233.181 108.203 233.543 107.834 233.543Z" fill="black"/>
<path d="M115.226 229.566L112.269 231.373C111.899 231.373 111.53 231.373 111.16 231.373L108.203 229.928C107.834 229.566 107.834 229.566 108.203 229.205L111.16 227.398C111.53 227.398 111.899 227.398 112.269 227.398L115.226 228.843C115.595 228.843 115.595 229.205 115.226 229.566Z" fill="black"/>
<path d="M122.618 225.229L119.662 227.037C119.292 227.037 118.922 227.037 118.553 227.037L115.596 225.591C115.226 225.23 115.226 225.23 115.596 224.868L118.553 223.061C118.922 223.061 119.292 223.061 119.662 223.061L122.618 224.507C122.618 224.868 122.988 225.229 122.618 225.229Z" fill="black"/>
<path d="M130.011 221.254L127.054 223.061C126.684 223.061 126.314 223.061 125.945 223.061L122.988 221.615C122.618 221.254 122.618 221.254 122.988 220.892L125.945 219.085C126.314 219.085 126.684 219.085 127.054 219.085L130.011 220.531C130.011 220.531 130.011 220.892 130.011 221.254Z" fill="black"/>
<path d="M137.403 216.916L134.446 218.723C134.076 218.723 133.706 218.723 133.337 218.723L130.38 217.278C130.01 216.916 130.01 216.916 130.38 216.555L133.337 214.748C133.706 214.748 134.076 214.748 134.446 214.748L137.403 216.193C137.403 216.555 137.403 216.916 137.403 216.916Z" fill="black"/>
<path d="M144.425 212.941L141.468 214.748C141.099 214.748 140.729 214.748 140.36 214.748L137.403 213.302C137.033 212.94 137.033 212.94 137.403 212.579L140.36 210.772C140.729 210.772 141.099 210.772 141.468 210.772L144.425 212.218C144.795 212.218 144.795 212.579 144.425 212.941Z" fill="black"/>
<path d="M151.817 208.604L148.86 210.411C148.491 210.411 148.121 210.411 147.752 210.411L144.795 208.965C144.425 208.603 144.425 208.603 144.795 208.242L147.752 206.435C148.121 206.435 148.491 206.435 148.86 206.435L151.817 207.881C152.187 208.242 152.187 208.604 151.817 208.604Z" fill="black"/>
<path d="M159.209 204.628L156.253 206.435C155.883 206.435 155.513 206.435 155.144 206.435L152.187 204.989C151.817 204.628 151.817 204.628 152.187 204.266L155.144 202.459C155.513 202.459 155.883 202.459 156.253 202.459L159.209 203.905C159.579 203.905 159.579 204.266 159.209 204.628Z" fill="black"/>
<path d="M166.602 200.29L163.645 202.097C163.276 202.097 162.906 202.097 162.536 202.097L159.579 200.652C159.21 200.29 159.21 200.29 159.579 199.929L162.536 198.122C162.906 198.122 163.276 198.122 163.645 198.122L166.602 199.567C166.972 199.929 166.972 200.29 166.602 200.29Z" fill="black"/>
<path d="M173.994 196.315L171.037 198.122C170.668 198.122 170.298 198.122 169.928 198.122L166.972 196.676C166.602 196.315 166.602 196.315 166.972 195.953L169.928 193.785C170.298 193.785 170.668 193.785 171.037 193.785L173.994 195.23C174.364 195.592 174.364 195.953 173.994 196.315Z" fill="black"/>
<path d="M181.386 191.977L178.43 193.785C178.06 193.785 177.69 193.785 177.321 193.785L174.364 192.339C173.994 191.977 173.994 191.977 174.364 191.616L177.321 189.809C177.69 189.809 178.06 189.809 178.43 189.809L181.386 191.255C181.756 191.616 181.756 191.977 181.386 191.977Z" fill="black"/>
<path d="M188.779 188.001L185.822 189.808C185.452 189.808 185.082 189.808 184.713 189.808L181.756 188.363C181.386 188.001 181.386 188.001 181.756 187.64L184.713 185.833C185.082 185.833 185.452 185.833 185.822 185.833L188.779 187.278C189.148 187.278 189.148 187.64 188.779 188.001Z" fill="black"/>
<path d="M196.171 183.664L193.214 185.471C192.844 185.471 192.475 185.471 192.105 185.471L189.148 184.026C188.778 183.664 188.778 183.664 189.148 183.303L192.105 181.496C192.475 181.496 192.844 181.496 193.214 181.496L196.171 182.941C196.54 183.303 196.54 183.664 196.171 183.664Z" fill="black"/>
<path d="M203.563 179.689L200.606 181.496C200.236 181.496 199.867 181.496 199.497 181.496L196.54 180.05C196.171 179.689 196.171 179.689 196.54 179.327L199.497 177.52C199.867 177.52 200.236 177.52 200.606 177.52L203.563 178.966C203.932 178.966 203.932 179.327 203.563 179.689Z" fill="black"/>
<path d="M100.072 245.831L97.1149 247.638C96.7453 247.638 96.3757 247.638 96.0061 247.638L93.0492 246.193C92.6796 245.831 92.6796 245.831 93.0492 245.47L96.0061 243.663C96.3757 243.663 96.7453 243.663 97.1149 243.663L100.072 245.108C100.441 245.47 100.441 245.831 100.072 245.831Z" fill="black"/>
<path d="M107.464 241.855L104.507 243.663C104.138 243.663 103.768 243.663 103.399 243.663L100.442 242.217C100.072 241.855 100.072 241.855 100.442 241.494L103.399 239.687C103.768 239.687 104.138 239.687 104.507 239.687L107.464 241.133C107.834 241.133 107.834 241.494 107.464 241.855Z" fill="black"/>
<path d="M114.856 237.518L111.9 239.325C111.53 239.325 111.16 239.325 110.791 239.325L107.834 237.88C107.464 237.518 107.464 237.518 107.834 237.157L110.791 235.35C111.16 235.35 111.53 235.35 111.9 235.35L114.856 236.795C115.226 237.157 115.226 237.518 114.856 237.518Z" fill="black"/>
<path d="M122.249 233.543L119.292 235.35C118.922 235.35 118.552 235.35 118.183 235.35L115.226 233.904C114.856 233.543 114.856 233.543 115.226 233.181L118.183 231.374C118.552 231.374 118.922 231.374 119.292 231.374L122.249 232.82C122.249 232.82 122.618 233.181 122.249 233.543Z" fill="black"/>
<path d="M129.641 229.205L126.684 231.012C126.314 231.012 125.945 231.012 125.575 231.012L122.618 229.566C122.248 229.205 122.248 229.205 122.618 228.844L125.575 227.036C125.945 227.036 126.314 227.036 126.684 227.036L129.641 228.482C129.641 228.844 129.641 229.205 129.641 229.205Z" fill="black"/>
<path d="M137.033 225.229L134.077 227.037C133.707 227.037 133.337 227.037 132.968 227.037L130.011 225.591C129.641 225.23 129.641 225.23 130.011 224.868L132.968 223.061C133.337 223.061 133.707 223.061 134.077 223.061L137.033 224.507C137.033 224.507 137.033 224.868 137.033 225.229Z" fill="black"/>
<path d="M144.056 220.892L141.099 222.699C140.729 222.699 140.36 222.699 139.99 222.699L137.033 221.254C136.663 220.892 136.663 220.892 137.033 220.531L139.99 218.724C140.36 218.724 140.729 218.724 141.099 218.724L144.056 220.169C144.425 220.531 144.425 220.892 144.056 220.892Z" fill="black"/>
<path d="M151.448 216.916L148.491 218.723C148.121 218.723 147.752 218.723 147.382 218.723L144.425 217.278C144.056 216.916 144.056 216.916 144.425 216.555L147.382 214.748C147.752 214.748 148.121 214.748 148.491 214.748L151.448 216.193C151.817 216.193 151.817 216.555 151.448 216.916Z" fill="black"/>
<path d="M158.84 212.579L155.883 214.386C155.514 214.386 155.144 214.386 154.774 214.386L151.817 212.941C151.448 212.579 151.448 212.579 151.817 212.218L154.774 210.41C155.144 210.41 155.514 210.41 155.883 210.41L158.84 211.856C159.21 212.218 159.21 212.579 158.84 212.579Z" fill="black"/>
<path d="M166.232 208.604L163.276 210.411C162.906 210.411 162.536 210.411 162.167 210.411L159.21 208.965C158.84 208.603 158.84 208.603 159.21 208.242L162.167 206.435C162.536 206.435 162.906 206.435 163.276 206.435L166.232 207.881C166.602 207.881 166.602 208.242 166.232 208.604Z" fill="black"/>
<path d="M173.625 204.266L170.668 206.073C170.298 206.073 169.928 206.073 169.559 206.073L166.602 204.627C166.232 204.266 166.232 204.266 166.602 203.905L169.559 202.097C169.928 202.097 170.298 202.097 170.668 202.097L173.625 203.543C173.994 203.905 173.994 204.266 173.625 204.266Z" fill="black"/>
<path d="M181.017 200.29L178.06 202.097C177.69 202.097 177.321 202.097 176.951 202.097L173.994 200.652C173.625 200.29 173.625 200.29 173.994 199.929L176.951 198.122C177.321 198.122 177.69 198.122 178.06 198.122L181.017 199.567C181.386 199.567 181.386 199.929 181.017 200.29Z" fill="black"/>
<path d="M188.409 195.953L185.452 197.76C185.082 197.76 184.713 197.76 184.343 197.76L181.386 196.315C181.016 195.953 181.016 195.953 181.386 195.592L184.343 193.785C184.713 193.785 185.082 193.785 185.452 193.785L188.409 195.23C188.778 195.592 188.778 195.953 188.409 195.953Z" fill="black"/>
<path d="M195.801 191.977L192.844 193.785C192.475 193.785 192.105 193.785 191.735 193.785L188.778 192.339C188.409 191.977 188.409 191.977 188.778 191.616L191.735 189.809C192.105 189.809 192.475 189.809 192.844 189.809L195.801 191.255C196.171 191.255 196.171 191.616 195.801 191.977Z" fill="black"/>
<path d="M203.193 187.64L200.236 189.447C199.867 189.447 199.497 189.447 199.127 189.447L196.171 188.001C195.801 187.64 195.801 187.64 196.171 187.279L199.127 185.471C199.497 185.471 199.867 185.471 200.236 185.471L203.193 186.917C203.563 187.279 203.563 187.64 203.193 187.64Z" fill="black"/>
<path d="M210.585 183.664L207.628 185.471C207.258 185.471 206.889 185.471 206.519 185.471L203.562 184.026C203.193 183.664 203.193 183.664 203.562 183.303L206.519 181.496C206.889 181.496 207.258 181.496 207.628 181.496L210.585 182.941C210.585 182.941 210.955 183.303 210.585 183.664Z" fill="black"/>
<path d="M218.347 171.376L215.39 173.183C215.021 173.183 214.651 173.183 214.281 173.183L211.325 171.737C210.955 171.376 210.955 171.376 211.325 171.014L214.281 169.207C214.651 169.207 215.021 169.207 215.39 169.207L218.347 170.653C218.347 170.653 218.347 171.014 218.347 171.376Z" fill="black"/>
<path d="M210.955 175.351L207.998 177.158C207.629 177.158 207.259 177.158 206.889 177.158L203.932 175.712C203.563 175.351 203.563 175.351 203.932 174.989L206.889 173.182C207.259 173.182 207.629 173.182 207.998 173.182L210.955 174.628C210.955 174.989 210.955 175.351 210.955 175.351Z" fill="black"/>
<path d="M225.37 167.038L222.413 168.845C222.043 168.845 221.674 168.845 221.304 168.845L218.347 167.4C217.977 167.038 217.977 167.038 218.347 166.677L221.304 164.87C221.674 164.87 222.043 164.87 222.413 164.87L225.37 166.315C225.739 166.677 225.739 167.038 225.37 167.038Z" fill="black"/>
<path d="M232.762 163.063L229.805 164.87C229.435 164.87 229.066 164.87 228.696 164.87L225.739 163.424C225.37 163.063 225.37 163.063 225.739 162.701L228.696 160.894C229.066 160.894 229.435 160.894 229.805 160.894L232.762 162.34C233.132 162.701 233.132 162.701 232.762 163.063Z" fill="black"/>
<path d="M240.154 158.725L237.197 160.532C236.828 160.532 236.458 160.532 236.088 160.532L233.131 159.086C232.762 158.725 232.762 158.725 233.131 158.364L236.088 156.556C236.458 156.556 236.828 156.556 237.197 156.556L240.154 158.002C240.524 158.364 240.524 158.725 240.154 158.725Z" fill="black"/>
<path d="M247.547 154.75L244.59 156.557C244.22 156.557 243.851 156.557 243.481 156.557L240.524 155.111C240.154 154.75 240.154 154.75 240.524 154.388L243.481 152.581C243.851 152.581 244.22 152.581 244.59 152.581L247.547 154.027C247.916 154.388 247.916 154.388 247.547 154.75Z" fill="black"/>
<path d="M254.938 150.412L251.982 152.22C251.612 152.22 251.242 152.22 250.873 152.22L247.916 150.774C247.546 150.412 247.546 150.412 247.916 150.051L250.873 148.244C251.242 148.244 251.612 148.244 251.982 148.244L254.938 149.69C255.308 150.051 255.308 150.412 254.938 150.412Z" fill="black"/>
<path d="M262.331 146.436L259.374 148.244C259.004 148.244 258.635 148.244 258.265 148.244L255.308 146.798C254.939 146.436 254.939 146.436 255.308 146.075L258.265 144.268C258.635 144.268 259.004 144.268 259.374 144.268L262.331 145.714C262.7 146.075 262.7 146.075 262.331 146.436Z" fill="black"/>
<path d="M269.723 142.099L266.766 143.906C266.396 143.906 266.027 143.906 265.657 143.906L262.7 142.461C262.331 142.099 262.331 142.099 262.7 141.738L265.657 139.931C266.027 139.931 266.396 139.931 266.766 139.931L269.723 141.376C270.093 141.738 270.093 142.099 269.723 142.099Z" fill="black"/>
<path d="M225 175.351L222.043 177.158C221.674 177.158 221.304 177.158 220.935 177.158L217.978 175.712C217.608 175.351 217.608 175.351 217.978 174.989L220.935 173.182C221.304 173.182 221.674 173.182 222.043 173.182L225 174.628C225.37 174.628 225.37 174.989 225 175.351Z" fill="black"/>
<path d="M217.978 179.327L215.021 181.134C214.651 181.134 214.281 181.134 213.912 181.134L210.585 179.327C210.216 178.965 210.216 178.965 210.585 178.604L213.542 176.797C213.912 176.797 214.281 176.797 214.651 176.797L217.608 178.243C217.978 178.965 217.978 179.327 217.978 179.327Z" fill="black"/>
<path d="M232.393 171.014L229.436 172.821C229.066 172.821 228.696 172.821 228.327 172.821L225.37 171.376C225 171.014 225 171.014 225.37 170.653L228.327 168.845C228.696 168.845 229.066 168.845 229.436 168.845L232.393 170.291C232.762 170.653 232.762 171.014 232.393 171.014Z" fill="black"/>
<path d="M239.784 167.038L236.828 168.845C236.458 168.845 236.088 168.845 235.719 168.845L232.762 167.4C232.392 167.038 232.392 167.038 232.762 166.677L235.719 164.87C236.088 164.87 236.458 164.87 236.828 164.87L239.784 166.315C240.154 166.315 240.154 166.677 239.784 167.038Z" fill="black"/>
<path d="M247.177 162.701L244.22 164.508C243.85 164.508 243.481 164.508 243.111 164.508L240.154 163.062C239.785 162.701 239.785 162.701 240.154 162.339L243.111 160.532C243.481 160.532 243.85 160.532 244.22 160.532L247.177 161.978C247.546 162.339 247.546 162.701 247.177 162.701Z" fill="black"/>
<path d="M254.569 158.725L251.612 160.532C251.242 160.532 250.873 160.532 250.503 160.532L247.546 159.086C247.177 158.725 247.177 158.725 247.546 158.364L250.503 156.556C250.873 156.556 251.242 156.556 251.612 156.556L254.569 158.002C254.938 158.002 254.938 158.364 254.569 158.725Z" fill="black"/>
<path d="M261.961 154.388L259.005 156.195C258.635 156.195 258.265 156.195 257.896 156.195L254.939 154.75C254.569 154.388 254.569 154.388 254.939 154.027L257.896 152.22C258.265 152.22 258.635 152.22 259.005 152.22L261.961 153.665C262.331 154.027 262.331 154.388 261.961 154.388Z" fill="black"/>
<path d="M269.353 150.412L266.396 152.219C266.027 152.219 265.657 152.219 265.288 152.219L262.331 150.412C261.961 150.051 261.961 150.051 262.331 149.689L265.288 147.882C265.657 147.882 266.027 147.882 266.396 147.882L269.353 149.328C269.723 149.689 269.723 150.051 269.353 150.412Z" fill="black"/>
<path d="M10.257 188.725L76.7868 225.953C83.8094 229.928 96.3762 229.567 104.508 224.868L256.048 138.847C264.179 134.148 266.397 122.22 259.374 118.245L191.366 87.8841C184.343 83.9083 171.777 84.2697 163.645 88.9684L10.257 168.484C1.75596 173.183 2.86479 184.749 10.257 188.725Z" fill="black"/>
<path d="M76.0471 227.037L9.51726 189.809C5.45155 187.64 3.23389 183.303 3.23389 178.604C3.23389 173.906 5.45155 169.93 9.51726 167.4L163.275 87.8838C171.776 83.1852 184.712 82.4623 192.105 86.7995L260.113 117.16C263.07 118.967 264.918 122.22 264.918 126.196C264.918 131.618 261.591 137.039 256.786 139.931L105.246 225.952C100.441 228.482 94.5276 229.928 88.9835 229.928C84.1785 229.928 79.3736 228.844 76.0471 227.037ZM164.384 89.691L10.6261 169.207C7.2996 171.014 5.45155 174.267 5.45155 178.243C5.45155 182.219 7.2996 185.833 10.6261 187.279L77.1559 224.507C83.8089 228.482 96.0061 227.759 103.768 223.422L255.308 137.401C259.374 135.232 262.331 130.533 262.331 125.835C262.331 124.027 261.961 120.775 258.635 118.967L190.626 88.6067C187.669 86.7995 183.604 86.0767 179.168 86.0767C174.363 86.0767 168.819 87.161 164.384 89.691Z" fill="black"/>
<path d="M10.2566 182.941L76.7865 220.169C83.8091 224.145 96.3758 223.784 104.507 219.085L256.047 133.063C264.179 128.365 265.288 121.497 257.895 117.522L191.366 80.2937C184.343 76.3179 171.776 76.6794 163.645 81.378L12.1047 167.4C3.97325 171.737 2.86441 178.604 10.2566 182.941Z" fill="white"/>
<path d="M76.0474 221.254L9.51754 184.026C6.19105 182.219 3.97339 179.327 3.97339 176.074C3.97339 172.46 6.56066 168.846 11.3656 166.316L162.906 80.294C171.407 75.5953 184.343 74.8724 191.735 79.2097L258.265 116.438C261.592 118.245 263.809 121.136 263.809 124.389C263.809 128.003 261.222 131.618 256.417 134.148L104.877 220.17C100.072 222.7 94.1583 224.145 88.6141 224.145C84.1788 224.145 79.3739 223.061 76.0474 221.254ZM164.384 82.1011L12.844 168.123C8.77832 170.291 6.56066 173.183 6.56066 176.074C6.56066 178.243 8.0391 180.412 10.6264 181.857L77.5258 219.085C84.1788 223.061 96.3759 222.338 104.138 218.001L255.678 131.979C259.744 129.811 261.961 126.919 261.961 124.028C261.961 121.859 260.483 119.69 257.896 118.245L191.366 81.0168C188.409 79.2097 184.343 78.4868 179.908 78.4868C174.364 78.4868 168.82 79.5711 164.384 82.1011Z" fill="black"/>
<path d="M186.93 84.6314L194.322 88.9687C195.801 89.6915 195.801 91.1373 194.322 92.2216C192.844 92.9445 192.844 94.3902 194.322 95.4745L230.544 115.715C232.023 116.438 234.61 116.438 236.088 115.715C237.567 114.992 240.154 114.992 241.633 115.715L249.025 120.052C254.199 122.944 254.199 127.281 249.025 130.172L99.3326 215.471C94.1581 218.363 86.3963 218.363 81.2217 215.471L18.388 180.412C13.2134 177.52 13.2134 173.183 18.388 170.292L168.819 84.9929C173.994 81.74 182.125 81.74 186.93 84.6314Z" fill="white"/>
<path d="M98.5935 214.748L244.59 131.979L239.785 129.449C238.306 128.726 235.719 128.726 234.24 129.449C232.762 130.172 230.175 130.172 228.696 129.449L192.474 109.208C190.996 108.485 190.996 107.04 192.474 105.955C193.953 105.232 193.953 103.787 192.474 102.702L185.082 98.3652C179.908 95.4737 171.776 95.4737 166.971 98.3652L20.6057 181.134L80.4826 214.748C85.6571 217.639 93.7885 217.639 98.5935 214.748Z" fill="white"/>
<path d="M80.8521 216.555L18.0183 181.496C15.0614 180.05 13.583 177.882 13.583 175.352C13.583 172.822 15.0614 170.653 18.0183 169.207L168.45 83.9083C173.994 80.6554 182.495 80.6554 187.669 83.9083L195.062 88.2456C196.171 88.9684 196.91 89.6913 196.91 90.7756C196.91 91.8599 196.171 92.9442 195.062 93.3056C194.692 93.6671 194.692 93.6671 194.692 94.0285C194.692 94.0285 194.692 94.39 195.431 94.7514L231.653 114.992C232.762 115.715 234.98 115.715 236.088 114.992C237.936 113.907 240.893 113.907 243.111 114.992L250.503 119.329C253.46 120.775 254.939 122.943 254.939 125.473C254.939 128.003 253.46 130.172 250.503 131.618L100.072 216.917C97.4846 218.362 93.7884 219.085 90.462 219.085C86.7658 218.724 83.4394 218.001 80.8521 216.555ZM237.197 116.799C235.349 117.883 232.392 117.883 230.175 116.799L193.953 96.5586C192.844 95.8357 192.105 95.1128 192.105 94.0285C192.105 92.9442 192.844 91.8599 193.953 91.4985C194.322 91.137 194.322 91.137 194.322 90.7756C194.322 90.7756 194.322 90.4142 193.583 90.0527L186.191 85.7155C181.386 83.1854 173.994 83.1854 169.189 85.7155L19.1272 171.014C17.2791 172.099 16.1703 173.544 16.1703 174.99C16.1703 176.436 17.2791 177.882 19.4968 178.966L82.3305 214.025C87.1355 216.555 94.5277 216.555 99.3326 214.025L249.764 128.726C251.612 127.642 252.721 126.196 252.721 124.751C252.721 123.305 251.612 121.859 249.394 120.775L242.002 116.438C241.263 116.076 240.524 116.076 239.785 116.076C238.676 116.076 237.567 116.438 237.197 116.799Z" fill="black"/>
<path d="M230.544 107.763C229.805 108.124 229.805 109.209 230.544 109.57C231.284 109.931 232.762 109.931 233.871 109.57C234.61 109.209 234.61 108.124 233.871 107.763C233.132 107.401 231.653 107.401 230.544 107.763Z" fill="black"/>
<path d="M206.15 96.1971L225.37 107.04C226.109 107.402 227.588 107.402 228.327 107.04C229.066 106.679 229.436 105.594 228.697 105.233L209.477 94.39C208.738 94.0285 207.259 94.0285 206.52 94.39C205.781 94.7514 205.411 95.4743 206.15 96.1971Z" fill="black"/>
<path d="M86.759 222.699L85.2805 222.703L85.2943 228.486L86.7727 228.482L86.759 222.699Z" fill="white"/>
<path d="M100.804 221.253L99.3254 221.257L99.3392 227.04L100.818 227.036L100.804 221.253Z" fill="white"/>
<path d="M72.7148 217.639L71.2363 217.643L71.2501 223.426L72.7286 223.422L72.7148 217.639Z" fill="white"/>
<path d="M250.497 136.316L249.018 136.319L249.032 142.102L250.511 142.099L250.497 136.316Z" fill="white"/>
<path d="M13.9465 184.387L12.468 184.39L12.4818 190.173L13.9602 190.17L13.9465 184.387Z" fill="white"/>
<path d="M255.672 133.424L254.193 133.428L254.207 139.211L255.685 139.207L255.672 133.424Z" fill="white"/>
<path d="M95.6301 222.338L94.1516 222.342L94.1654 228.125L95.6438 228.121L95.6301 222.338Z" fill="white"/>
<path d="M205.411 166.316C205.041 165.954 204.672 165.231 204.672 164.508C204.672 163.063 205.411 161.978 206.52 161.256L212.433 158.003C213.173 157.641 213.542 157.641 214.281 158.003C214.651 158.364 215.021 159.087 215.021 159.81C215.021 161.256 214.281 162.34 213.173 163.063L207.259 166.316C206.889 166.316 206.52 166.677 206.15 166.677C206.15 166.316 205.78 166.316 205.411 166.316ZM213.173 159.448L207.259 162.701C206.889 163.063 206.15 163.786 206.15 164.508C206.15 164.87 206.15 164.87 206.15 164.87L212.064 161.617C212.803 161.256 213.173 160.533 213.173 159.448Z" fill="white"/>
<path d="M47.588 209.326L41.6742 206.073C40.5654 205.351 39.8262 204.266 39.8262 202.82C39.8262 202.098 40.1958 201.375 40.5654 201.013C40.935 200.652 41.6742 200.652 42.4134 201.013L48.3272 204.266C49.436 204.989 50.1753 206.073 50.1753 207.519C50.1753 208.242 49.8056 208.965 49.436 209.326C49.0664 209.326 49.0664 209.688 48.6968 209.688C48.3272 209.688 47.9576 209.688 47.588 209.326ZM41.3046 202.82C41.3046 203.543 41.6742 204.628 42.4134 204.628L48.3272 207.881C48.3272 207.881 48.3272 207.881 48.3272 207.519C48.3272 206.796 47.9576 205.712 47.2184 205.712L41.3046 202.459C41.6742 202.459 41.3046 202.82 41.3046 202.82Z" fill="white"/>
<path d="M194.692 172.46C194.323 172.098 193.953 171.376 193.953 170.653C193.953 169.207 194.692 168.123 195.801 167.4L201.715 164.147C202.454 163.785 202.824 163.785 203.563 164.147C203.933 164.508 204.302 165.231 204.302 165.954C204.302 167.4 203.563 168.484 202.454 169.207L196.54 172.46C196.171 172.46 195.801 172.821 195.432 172.821C195.062 172.821 194.692 172.821 194.692 172.46ZM202.085 165.593L196.171 168.845C195.801 169.207 195.062 169.93 195.062 170.653C195.062 171.014 195.062 171.014 195.062 171.014L200.976 167.761C201.715 167.761 202.454 166.677 202.085 165.593C202.454 165.593 202.454 165.593 202.085 165.593Z" fill="white"/>
<path d="M218.717 159.087C218.347 158.725 217.978 158.002 217.978 157.28C217.978 155.834 218.717 154.749 219.826 154.027L220.935 153.304C221.674 152.942 222.043 152.942 222.783 153.304C223.152 153.665 223.522 154.388 223.522 155.111C223.522 156.557 222.783 157.641 221.674 158.364L220.565 159.087C220.195 159.087 219.826 159.448 219.456 159.448C219.456 159.087 219.087 159.087 218.717 159.087ZM221.674 154.749L220.565 155.472C220.195 155.834 219.456 156.557 219.456 157.28C219.456 157.641 219.456 157.641 219.456 157.641L220.565 156.918C221.304 156.557 222.043 155.834 221.674 154.749C222.043 154.749 222.043 154.749 221.674 154.749Z" fill="white"/>
<path d="M176.212 21.0186C169.189 9.45263 161.058 15.597 159.579 16.6814C159.579 16.6814 159.209 16.6814 159.209 16.3199C157.731 13.4284 149.969 -1.39042 142.577 1.8625L130.75 8.36833V8.72978L139.251 22.8258L150.339 52.8249L147.382 53.5478V59.6922C147.382 60.0536 147.752 60.0536 147.752 60.0536L159.579 53.5478L174.364 41.9819C173.994 42.3433 185.082 35.476 176.212 21.0186Z" fill="white"/>
<path d="M147.382 61.8607C147.013 61.8607 146.643 61.8607 146.643 61.4993C146.274 61.1378 145.904 60.7764 145.904 60.0535V52.8248L148.491 52.102L137.773 23.5485L129.271 9.09109V8.36821C129.271 8.00677 129.641 7.64535 130.011 7.28392L141.838 0.778063C144.426 -0.66768 148.861 -0.667674 154.035 5.83817C156.623 8.72965 158.471 12.344 159.58 14.5126C161.428 13.4283 164.015 11.9826 167.341 12.7055C171.037 13.4283 174.364 15.9584 176.951 20.2956C186.561 35.8373 174.734 43.4275 174.734 43.4275L159.949 54.9934L148.122 61.4993C148.122 61.4993 147.752 61.8607 147.382 61.8607ZM148.861 54.9934V57.8849L158.84 52.4634L173.255 41.2589C173.625 40.8974 182.865 35.1145 174.734 21.7413C172.516 18.127 169.929 15.9584 167.341 15.5969C164.015 15.2355 161.428 17.0427 160.688 17.7656L159.949 18.127H159.21C158.471 18.127 158.101 17.7655 157.731 17.0427C156.992 15.5969 154.775 11.2597 151.818 7.64535C149.6 4.75386 146.274 1.86239 143.317 3.30813L132.598 9.45253L140.36 22.8256L152.187 54.632L148.861 54.9934Z" fill="black"/>
<path d="M164.384 28.97C164.384 28.97 159.209 28.6086 158.101 28.97C156.992 29.3314 145.903 34.0301 145.903 34.0301L144.055 37.283L149.969 52.8248L147.012 53.5476V59.692C147.012 60.0535 147.382 60.0535 147.382 60.0535L159.209 53.5476L173.994 41.9817C173.994 41.9817 184.343 35.8373 176.581 22.1027L164.384 28.97Z" fill="white"/>
<path d="M147.012 61.8606C146.643 61.8606 146.273 61.8607 146.273 61.4992C145.903 61.1378 145.534 60.7763 145.534 60.0535V52.8248L148.121 52.1019L142.577 37.283L144.795 32.2229L145.534 31.8615C149.969 30.0543 157.361 27.1628 158.101 26.8014C158.84 26.8014 162.536 26.8014 164.384 26.8014L177.69 19.9341L178.429 21.3799C186.561 36.1987 175.472 43.066 175.103 43.4274L160.318 54.9934L148.491 61.4992C147.751 61.4992 147.382 61.8606 147.012 61.8606ZM148.491 54.9934V57.8849L158.47 52.4633L172.885 41.2588C173.255 40.8974 181.386 35.8373 175.842 24.6328L164.754 30.4158H164.384C161.797 30.4158 158.84 30.0543 158.47 30.4158C157.731 30.7772 151.448 32.9458 147.012 35.1144L145.903 38.0059L152.187 54.6319L148.491 54.9934Z" fill="black"/>
<path d="M149.6 22.1029L159.21 17.0428V16.6814C158.471 15.2356 156.253 10.8984 153.296 7.28406L141.469 14.1513L137.772 21.0186L139.251 23.1872L141.099 27.8859L145.165 31.1388L149.6 22.1029Z" fill="white"/>
<path d="M145.165 33.3074L139.251 28.9702L137.403 23.9101L135.555 21.0186L139.62 13.067L153.296 5.47684L154.035 6.56113C156.992 10.5369 159.579 14.8742 160.319 16.3199C160.688 16.6813 160.319 17.4042 160.319 17.7657V18.4885L150.709 23.5486L145.165 33.3074ZM141.838 26.8015L144.056 28.6087L148.121 21.0186L156.992 16.3199C156.253 14.8742 154.405 11.9827 152.557 9.09119L142.208 14.8742L139.251 20.6571L140.36 22.4643L141.838 26.8015Z" fill="black"/>
<path d="M164.015 27.5241C156.992 15.9582 148.861 22.1026 147.383 23.1869C147.383 23.1869 147.013 23.1869 147.013 22.8254C145.534 19.9339 137.773 5.11507 130.38 8.36799C121.51 12.7052 132.229 31.8613 132.229 31.8613L146.643 60.0533C146.643 60.4148 147.013 60.4147 147.013 60.4147L161.797 48.8488C162.167 48.8488 172.886 42.343 164.015 27.5241Z" fill="white"/>
<path d="M147.752 61.8608H147.013C146.643 61.8608 145.904 61.4994 145.534 60.7765L131.119 32.5846C130.75 32.2231 123.727 19.2114 125.945 11.6213C126.684 9.45266 127.793 8.00693 130.01 6.92262C137.403 3.30827 145.164 15.2356 148.121 20.6572C149.969 19.5729 152.557 18.1271 155.883 18.85C159.579 19.2114 162.906 22.1029 165.493 26.4401C175.103 41.9819 163.275 49.572 163.275 49.572L147.752 61.8608ZM132.598 9.81409C132.228 9.81409 131.489 9.81409 131.119 10.1755C130.01 10.8984 129.271 11.6213 128.902 13.067C127.054 18.4886 131.859 28.2473 133.707 31.5002L147.752 58.2465L161.058 47.7648C161.427 47.4034 170.668 41.6204 162.536 28.2473C160.319 24.633 157.731 22.4643 155.144 22.1029C151.817 21.7415 149.23 23.5486 148.491 24.2715L147.752 24.9944H147.013C146.273 24.9944 145.904 24.633 145.534 23.9101C142.947 18.1271 137.033 9.81409 132.598 9.81409Z" fill="black"/>
<path d="M141.661 34.0216L139.033 35.3471L147.335 51.0863L149.963 49.7608L141.661 34.0216Z" fill="black"/>
<path d="M144.056 18.4884L156.253 11.9825L158.84 17.0426L147.013 23.1871L144.056 18.4884Z" fill="black"/>
<path d="M164.384 47.7647L170.298 45.2347L177.32 40.1746L179.168 34.7531L179.538 29.3315L178.429 27.1629L167.341 33.3073L168.08 37.2831L166.602 42.3432L164.384 47.7647Z" fill="black"/>
<path d="M201.345 139.569C194.323 128.003 186.191 134.148 184.713 135.232C184.713 135.232 184.343 135.232 184.343 134.871C182.865 131.979 175.103 117.16 167.711 120.413L155.883 126.919V127.28L164.384 141.376L175.473 171.376L172.516 172.098V178.243C172.516 178.604 172.885 178.604 172.885 178.604L184.713 172.098L199.497 160.533C199.497 160.894 210.216 154.027 201.345 139.569Z" fill="white"/>
<path d="M172.885 180.412C172.516 180.412 172.146 180.412 172.146 180.05C171.776 179.689 171.407 179.327 171.407 178.604V171.376L173.994 170.653L163.275 142.099L154.774 127.642V126.919C154.774 126.558 155.144 126.196 155.514 125.835L167.341 119.329C175.103 115.715 182.495 127.642 185.452 133.063C187.3 131.979 189.887 130.533 193.214 131.256C196.91 131.618 200.236 134.509 202.824 138.846C212.434 154.388 200.606 161.978 200.606 161.978L185.822 173.544L173.994 180.05C173.255 180.05 172.885 180.412 172.885 180.412ZM173.994 173.544V176.436L183.974 171.014L198.388 159.81C198.758 159.448 207.998 153.665 199.867 140.292C197.649 136.678 195.062 134.509 192.475 134.148C189.148 133.786 186.561 135.594 185.822 136.316L185.082 136.678H184.343C183.604 136.678 183.234 136.316 182.865 135.594C179.908 129.449 173.255 119.69 168.45 121.859L157.731 127.642L165.493 141.015L177.321 172.46L173.994 173.544Z" fill="black"/>
<path d="M189.518 147.521C189.518 147.521 184.343 147.16 183.234 147.521C182.125 147.521 171.037 152.581 171.037 152.581L169.189 156.557L175.103 172.099L172.146 172.822V178.966C172.146 179.327 172.515 179.327 172.515 179.327L184.343 172.822L199.127 161.256C199.127 161.256 209.476 155.111 201.715 141.377L189.518 147.521Z" fill="white"/>
<path d="M172.516 180.412C172.146 180.412 171.776 180.412 171.776 180.05C171.407 179.689 171.037 179.327 171.037 178.604V171.376L173.624 170.653L168.08 155.834L170.298 150.774L171.037 150.412C175.473 148.605 182.865 145.714 183.604 145.352C184.343 145.352 188.039 145.352 189.887 145.352L203.193 138.485L203.933 139.931C212.064 154.75 200.976 161.617 200.606 161.978L185.822 173.544L173.994 180.05C172.885 180.05 172.516 180.412 172.516 180.412ZM173.624 173.544V176.436L183.604 171.014L198.019 159.81C198.388 159.448 206.52 154.388 200.976 143.184L189.887 148.967H189.518C186.93 148.967 183.974 148.605 183.604 148.967C182.865 149.328 176.581 151.497 172.146 153.665L171.037 156.557L177.321 173.183L173.624 173.544Z" fill="black"/>
<path d="M174.734 140.654L184.343 135.594V135.232C183.604 133.787 181.386 129.449 178.43 125.835L166.232 132.341L162.536 139.208L164.015 141.377L165.863 146.075L169.929 149.328L174.734 140.654Z" fill="white"/>
<path d="M170.298 151.858L164.385 147.521L162.537 142.461L160.688 139.569L164.754 131.618L178.43 124.028L179.169 125.112C182.126 129.088 184.713 133.425 185.452 134.871C185.822 135.232 185.452 135.955 185.452 136.317V137.039L175.842 142.1L170.298 151.858ZM166.972 145.352L169.19 147.16L173.625 139.569L182.495 134.871C181.756 133.425 179.908 130.534 178.06 127.642L167.711 133.425L164.754 139.208L165.863 141.015L166.972 145.352Z" fill="black"/>
<path d="M189.148 146.075C182.126 134.509 173.994 140.654 172.516 141.738C172.516 141.738 172.146 141.738 172.146 141.377C170.668 138.485 162.906 123.666 155.514 126.919C146.643 131.256 157.362 150.412 157.362 150.412L171.777 178.604C171.777 178.966 172.146 178.966 172.146 178.966L186.931 167.4C187.3 167.4 198.019 160.894 189.148 146.075Z" fill="white"/>
<path d="M172.885 180.412H172.146C171.776 180.412 171.037 180.05 171.037 179.327L156.622 151.135C156.253 150.774 149.23 137.762 151.448 130.172C152.187 128.004 153.296 126.558 155.514 125.474C158.101 124.389 162.167 124.028 167.711 130.534C170.298 133.425 172.146 137.039 173.255 139.208C175.103 138.124 177.69 136.678 181.017 137.401C184.713 137.762 188.039 140.654 190.627 144.991C200.236 160.533 188.409 168.123 188.409 168.123L172.885 180.412ZM157.731 128.365C157.362 128.365 156.622 128.365 156.253 128.726C155.144 129.449 154.405 130.172 154.035 131.618C152.187 137.039 156.992 146.798 158.84 150.051L172.885 176.797L186.191 166.316C186.561 165.954 195.801 160.171 187.67 146.798C185.452 143.184 182.865 141.015 180.278 140.654C176.951 140.292 174.364 142.1 173.625 142.822L172.885 143.184H172.146C171.407 143.184 171.037 142.822 170.668 142.1C169.928 140.654 167.711 136.317 164.754 132.702C162.906 130.895 160.319 128.365 157.731 128.365Z" fill="black"/>
<path d="M166.789 152.603L164.162 153.929L172.464 169.668L175.091 168.342L166.789 152.603Z" fill="black"/>
<path d="M169.559 137.039L181.386 130.533L183.974 135.594L172.146 141.738L169.559 137.039Z" fill="black"/>
<path d="M189.887 166.316L195.801 163.786L202.454 158.726L204.302 153.304L204.672 147.882L203.563 145.714L192.844 151.858L193.214 155.834L191.736 160.894L189.887 166.316Z" fill="black"/>
<path d="M121.14 57.5229C114.117 45.957 105.986 52.1014 104.508 53.1857C104.508 53.1857 104.138 53.1857 104.138 52.8243C102.66 49.9328 94.8977 35.1139 87.5055 38.3668L75.678 44.8727V45.2341L84.179 59.3301L95.2673 89.3293L92.3104 90.4136V96.558C92.3104 96.9194 92.6801 96.9194 92.6801 96.9194L104.508 90.4136L119.292 78.8476C119.292 78.8476 130.011 72.3418 121.14 57.5229Z" fill="white"/>
<path d="M92.6802 98.3654C92.3106 98.3654 91.941 98.3654 91.941 98.004C91.5714 97.6425 91.2018 97.2811 91.2018 96.5582V89.3295L93.7891 88.6067L83.0704 60.0532L74.5693 45.5958V44.8729C74.5693 44.5115 74.9389 44.1501 75.3086 43.7886L87.1361 37.2828C94.8979 33.6684 102.29 45.5958 105.247 51.0173C107.095 49.933 109.682 48.4873 113.009 49.2102C116.705 49.933 120.031 52.4631 122.619 56.8003C132.229 72.342 120.401 79.9322 120.401 79.9322L105.617 91.4981L93.7891 98.004C93.0498 98.3654 92.6802 98.3654 92.6802 98.3654ZM93.7891 91.4981V94.3896L103.769 88.9681L118.553 77.4022C118.923 77.0407 128.163 71.2577 120.031 57.8846C117.814 54.2703 115.226 52.1016 112.639 51.7402C109.313 51.3788 106.725 53.186 105.986 53.9088L105.247 54.2703H104.508C103.769 54.2703 103.399 53.9088 103.029 53.186C100.072 47.0415 93.4195 36.9214 88.6145 39.4514L77.5262 45.9572L85.288 58.9689L97.1156 90.7753L93.7891 91.4981Z" fill="black"/>
<path d="M109.313 65.4752C109.313 65.4752 104.138 65.1137 103.029 65.4752C101.92 65.4752 90.8322 70.5353 90.8322 70.5353L88.9841 74.5111L94.8979 90.0528L91.941 90.7757V96.9201C91.941 97.2815 92.3106 97.2815 92.3106 97.2815L104.138 90.7757L118.923 79.2097C118.923 79.2097 129.272 73.0653 121.51 59.3308L109.313 65.4752Z" fill="white"/>
<path d="M92.3108 98.3656C91.9412 98.3656 91.5716 98.3656 91.5716 98.0041C91.202 97.6427 90.8324 97.2813 90.8324 96.5584V89.3297L93.4196 88.6068L87.8755 73.788L90.0932 68.7278L90.8324 68.3664C95.2677 66.5592 102.66 63.6677 103.399 63.3063C104.138 63.3063 107.834 63.3063 109.683 63.3063L122.988 56.439L123.728 57.8848C131.859 72.7036 120.771 79.5709 120.401 79.9323L105.617 91.4983L93.7893 98.0041C92.6804 98.3656 92.6804 98.3656 92.3108 98.3656ZM93.4196 91.4983V94.3898L103.399 88.9682L118.184 77.4023C118.553 77.0409 126.685 71.9807 121.14 60.7762L110.052 66.5592H109.683C107.095 66.5592 104.138 66.1978 103.769 66.5592C103.03 66.9207 96.7461 69.0893 92.3108 71.2579L91.202 74.1494L97.4854 90.7754L93.4196 91.4983Z" fill="black"/>
<path d="M94.5287 58.6075L104.139 53.5474V53.186C103.399 51.7403 101.182 47.403 98.2248 43.7887L86.3973 50.656L82.7012 57.5233L84.1796 59.6919L86.0277 64.3905L90.0934 67.6434L94.5287 58.6075Z" fill="white"/>
<path d="M90.4626 69.8121L84.5489 65.4749L82.3312 60.0534L80.4832 57.1619L84.5489 49.2103L98.2245 41.6202L98.9637 42.7045C101.921 46.3188 104.138 50.6561 105.247 52.4632C105.617 52.8247 105.247 53.5476 105.247 53.909V54.6319L95.6372 59.692L90.4626 69.8121ZM86.7665 63.6678L88.9842 65.4749L93.0499 57.8848L101.921 53.1861C101.181 51.7404 99.3333 48.8489 97.4852 45.9574L87.1361 51.7404L84.1793 57.5234L85.2881 59.3305L86.7665 63.6678Z" fill="black"/>
<path d="M108.943 64.3912C101.921 52.8253 93.7892 58.6082 92.3107 60.054C92.3107 60.054 91.9411 60.054 91.9411 59.6925C90.4627 56.8011 82.7009 41.9822 75.3087 45.2351C66.438 49.5723 77.1567 68.7284 77.1567 68.7284L91.5715 96.9204C91.5715 97.2819 91.9411 97.2819 91.9411 97.2819L106.726 85.7159C107.095 85.7159 117.814 78.8486 108.943 64.3912Z" fill="white"/>
<path d="M92.6805 98.7273H91.9412C91.5716 98.7273 90.8324 98.3659 90.4628 97.643L76.048 69.451C75.6784 69.0896 68.6558 56.0779 70.8735 48.4877C71.6127 46.3191 72.7215 44.8734 74.9392 43.7891C82.3314 40.1747 90.0932 52.1021 93.0501 57.5236C94.8981 56.4393 97.4854 54.9936 100.812 55.7165C104.508 56.0779 107.834 58.9694 110.422 63.3066C120.032 78.8483 108.204 86.4385 108.204 86.4385L92.6805 98.7273ZM77.5264 46.3191C77.1568 46.3191 76.4176 46.3191 76.048 46.6806C74.9392 47.4034 74.2 48.1263 73.8303 49.572C71.9823 54.9936 76.7872 64.7523 78.6353 68.0052L92.6805 94.7515L105.986 84.2698C106.356 83.9084 115.596 78.1255 107.465 64.7523C105.247 61.138 102.66 58.9694 100.073 58.6079C96.7462 58.2465 94.1589 60.0537 93.4197 60.7765L92.6805 61.138H91.9412C91.202 61.138 90.8324 60.7765 90.4628 60.0537C87.8755 54.9936 82.3314 46.3191 77.5264 46.3191Z" fill="black"/>
<path d="M86.8688 70.4228L84.241 71.7483L92.543 87.4874L95.1708 86.162L86.8688 70.4228Z" fill="black"/>
<path d="M89.3538 54.9929L101.181 48.4871L103.769 53.5472L91.941 59.6916L89.3538 54.9929Z" fill="black"/>
<path d="M109.682 84.2692L115.596 81.7392L122.249 77.0405L124.097 71.2576L124.467 65.836L123.727 64.0289L112.639 69.8118L113.009 74.1491L111.53 79.2092L109.682 84.2692Z" fill="black"/>
<path d="M125.575 133.786C118.553 122.221 110.421 128.365 108.943 129.449C108.943 129.449 108.573 129.449 108.573 129.088C107.095 126.196 99.333 111.377 91.9408 114.63L80.1133 121.136V121.498L88.6143 135.594L99.7026 165.593L96.7457 166.316V172.46C96.7457 172.822 97.1154 172.822 97.1154 172.822L108.943 166.316L123.727 154.75C123.727 155.111 134.816 148.244 125.575 133.786Z" fill="white"/>
<path d="M97.1151 174.267C96.7454 174.267 96.3758 174.267 96.3758 173.906C96.0062 173.544 95.6366 173.183 95.6366 172.46V165.231L98.2239 164.508L87.5052 135.955L79.0042 121.497V120.775C79.0042 120.413 79.3738 120.052 79.7434 119.69L91.5709 113.184C99.3327 109.57 106.725 121.497 109.682 126.919C111.53 125.835 114.117 124.389 117.444 125.112C121.14 125.473 124.466 128.365 127.053 132.702C136.663 148.244 124.836 155.834 124.836 155.834L110.051 167.4L98.2239 173.906C97.8543 174.267 97.4847 174.267 97.1151 174.267ZM98.2239 167.761V170.653L108.203 165.231L122.988 153.665C123.357 153.304 132.598 147.521 124.466 134.148C122.249 130.533 119.661 128.365 117.074 128.003C113.748 127.642 111.16 129.449 110.421 130.172L109.682 130.533H108.943C108.203 130.533 107.834 130.172 107.464 129.449C104.507 123.305 97.8543 113.546 93.0493 115.714L82.3306 121.497L90.0925 134.871L101.92 166.315L98.2239 167.761Z" fill="black"/>
<path d="M113.748 141.377C113.748 141.377 108.573 141.015 107.464 141.377C106.356 141.377 95.2672 146.437 95.2672 146.437L93.4192 150.413L99.333 165.954L96.3761 166.677V172.822C96.3761 173.183 96.7457 173.183 96.7457 173.183L108.573 166.677L123.358 155.111C123.358 155.111 133.707 148.967 125.945 135.232L113.748 141.377Z" fill="white"/>
<path d="M96.7454 174.267C96.3758 174.267 96.0062 174.267 96.0062 173.906C95.6366 173.544 95.2669 173.183 95.2669 172.46V165.231L97.8542 164.508L92.3101 149.69L94.5277 144.629L95.2669 144.268C99.7023 142.461 107.094 139.569 107.834 139.208C108.573 139.208 112.269 139.208 114.117 139.208L127.423 132.341L128.162 133.786C136.294 148.605 125.205 155.473 124.836 155.834L110.051 167.4L98.2238 173.906C97.4846 174.267 97.115 174.267 96.7454 174.267ZM97.8542 167.761V170.653L107.834 165.231L122.618 153.665C122.988 153.304 131.119 148.244 125.575 137.039L114.487 142.822H114.117C111.53 142.822 108.573 142.461 108.203 142.822C107.464 143.184 101.181 145.352 96.7454 147.521L95.6366 150.412L101.92 167.038L97.8542 167.761Z" fill="black"/>
<path d="M98.9633 134.871L108.573 129.811V129.449C107.834 128.003 105.616 123.666 102.659 120.052L90.8318 126.919L87.1357 133.786L88.6142 135.955L90.4622 140.654L94.5279 143.907L98.9633 134.871Z" fill="white"/>
<path d="M94.8977 145.714L88.9839 141.376L87.1359 136.316L85.2878 133.425L89.3536 125.473L103.029 117.883L103.768 118.967C106.725 122.582 108.943 126.919 110.052 128.726C110.421 129.449 110.052 129.811 110.052 130.172V130.895L100.442 135.955L94.8977 145.714ZM91.5712 139.569L93.7889 141.376L97.8546 133.786L106.725 129.088C105.986 127.642 104.138 124.75 102.29 121.859L91.9408 127.642L88.9839 133.425L90.0928 135.232L91.5712 139.569Z" fill="black"/>
<path d="M113.378 140.292C106.355 128.726 98.224 134.871 96.7456 135.955C96.7456 135.955 96.3759 135.955 96.3759 135.594C94.8975 132.702 87.1357 117.883 79.7435 121.136C70.8728 125.474 81.5915 144.63 81.5915 144.63L96.0063 172.822C96.0063 173.183 96.3759 173.183 96.3759 173.183L111.16 161.617C111.53 161.617 122.618 154.75 113.378 140.292Z" fill="white"/>
<path d="M97.1153 174.629H96.3761C96.0065 174.629 95.2672 174.267 94.8976 173.544L80.4828 145.352C80.1132 144.991 73.0906 131.979 75.3083 124.389C76.0475 122.22 77.1563 120.775 79.374 119.69C86.7662 116.076 94.528 128.003 97.4849 133.425C99.333 132.341 101.92 130.895 105.247 131.618C108.943 131.979 112.269 134.871 114.857 139.208C124.466 154.75 112.639 162.34 112.639 162.34L97.1153 174.629ZM82.3309 122.22C81.9613 122.22 81.222 122.22 80.8524 122.582C79.7436 123.305 79.0044 124.028 78.6348 125.473C76.7867 130.895 81.5917 140.654 83.4397 143.907L97.4849 170.653L110.791 160.171C111.16 159.81 120.401 154.027 112.269 140.654C110.052 137.039 107.464 134.871 104.877 134.509C101.551 134.148 98.9633 135.955 98.2241 136.678L97.4849 137.039H96.7457C96.0065 137.039 95.6368 136.678 95.2672 135.955C92.3104 130.895 86.7662 122.22 82.3309 122.22Z" fill="black"/>
<path d="M91.4193 146.706L88.7915 148.031L97.0935 163.771L99.7213 162.445L91.4193 146.706Z" fill="black"/>
<path d="M93.7886 130.895L105.986 124.389L108.573 129.449L96.3758 135.955L93.7886 130.895Z" fill="black"/>
<path d="M114.117 160.171L120.031 158.002L126.684 152.942L128.902 147.521V141.738L128.163 139.931L117.074 145.714L117.814 150.051L116.335 155.111L114.117 160.171Z" fill="black"/>
<path d="M137.033 147.159L134.077 146.798C134.816 141.015 132.598 136.316 132.598 136.316L135.185 135.232C135.555 135.593 137.773 140.653 137.033 147.159Z" fill="black"/>
<path d="M149.6 96.9199C142.577 85.354 134.446 91.4984 132.967 92.5827C132.967 92.5827 132.598 92.5827 132.598 92.2213C131.119 89.3298 123.357 74.5109 115.965 77.7639L104.138 84.2697V84.6312L112.639 98.7271L123.727 128.726L120.77 129.449V135.594C120.77 135.955 121.14 135.955 121.14 135.955L132.967 129.449L147.752 117.883C147.752 118.245 158.84 111.739 149.6 96.9199Z" fill="white"/>
<path d="M121.14 137.762C120.77 137.762 120.401 137.762 120.401 137.401C120.031 137.039 119.662 136.678 119.662 135.955V128.726L122.249 128.003L111.53 99.45L103.029 84.9926V84.2697C103.029 83.9082 103.399 83.5468 103.768 83.1854L115.596 76.6795C118.183 75.2338 122.618 75.2338 127.793 81.7396C130.38 84.6311 132.228 88.2455 133.337 90.4141C135.185 89.3298 137.772 87.884 141.099 88.6069C144.795 88.9683 148.122 91.8598 150.709 96.1971C160.319 111.739 148.491 119.329 148.491 119.329L133.707 130.895L121.879 137.401C121.879 137.762 121.51 137.762 121.14 137.762ZM122.249 130.895V133.786L132.228 128.365L146.643 117.16C147.013 116.799 156.253 111.016 148.121 97.6428C145.904 94.0284 143.317 91.8598 140.729 91.4984C137.403 91.1369 134.816 92.9441 134.076 93.667L133.337 94.0284H132.598C131.859 94.0284 131.489 93.667 131.119 92.9441C130.38 91.4984 128.163 87.1612 125.206 83.5468C122.988 80.6553 119.662 77.7638 116.705 79.2096L105.986 85.354L113.748 98.7271L125.575 130.533L122.249 130.895Z" fill="black"/>
<path d="M137.773 104.872C137.773 104.872 132.598 104.51 131.489 104.872C130.38 105.233 119.292 109.932 119.292 109.932L117.444 113.907L123.358 129.449L120.401 130.172V136.316C120.401 136.678 120.771 136.678 120.771 136.678L132.598 130.172L147.383 118.606C147.383 118.606 157.732 112.462 149.97 98.7272L137.773 104.872Z" fill="white"/>
<path d="M120.771 137.762C120.401 137.762 120.032 137.762 120.032 137.401C119.662 137.039 119.292 136.678 119.292 135.955V128.726L121.88 128.003L116.335 113.184L118.553 108.124L119.292 107.763C123.728 105.956 131.12 103.064 131.859 102.703C132.598 102.703 136.294 102.703 138.142 102.703L151.448 95.8356L152.188 97.2813C160.319 112.1 149.231 118.967 148.861 119.329L134.077 130.895L122.249 137.401C121.51 137.762 121.14 137.762 120.771 137.762ZM121.88 130.895V133.786L131.859 128.365L146.274 117.16C146.643 116.799 154.775 111.739 149.231 100.534L138.142 106.317H137.773C135.186 106.317 132.598 105.956 131.859 106.317C131.12 106.679 124.836 108.847 120.401 111.016L119.292 113.907L125.576 130.533L121.88 130.895Z" fill="black"/>
<path d="M122.988 98.0041L132.598 92.944V92.5826C131.859 91.1368 129.641 86.7996 126.684 83.1852L114.487 90.0525L110.791 96.9198L112.269 99.0884L114.117 103.787L118.183 107.04L122.988 98.0041Z" fill="white"/>
<path d="M118.922 109.209L113.008 104.871L111.16 99.8113L109.312 96.9198L113.378 88.9683L127.054 81.3781L127.793 82.4624C130.75 86.4382 133.337 90.7754 134.076 92.2212C134.446 92.5826 134.076 93.3055 134.076 93.6669V94.3898L124.466 99.4499L118.922 109.209ZM115.596 103.064L117.813 104.871L121.879 97.2813L130.75 92.5826C130.01 91.1369 128.162 88.2454 126.314 85.3539L115.965 91.1369L113.008 96.9198L114.117 98.727L115.596 103.064Z" fill="black"/>
<path d="M137.403 103.787C130.381 92.2212 122.249 98.3656 120.771 99.4499C120.771 99.4499 120.401 99.4499 120.401 99.0885C118.923 96.197 111.161 81.3781 103.769 84.6311C94.898 88.9683 105.617 108.124 105.617 108.124L120.031 136.316C120.031 136.678 120.401 136.678 120.401 136.678L135.186 125.112C135.555 125.112 146.643 118.245 137.403 103.787Z" fill="white"/>
<path d="M121.14 138.124H120.401C120.031 138.124 119.292 137.762 118.922 137.039L104.507 108.847C104.138 108.486 97.1153 95.4741 99.3329 87.8839C100.072 85.7153 101.181 84.2696 103.399 83.1853C105.986 82.101 110.052 81.7396 115.596 88.2454C118.183 91.1369 120.031 94.7512 121.14 96.9198C122.988 95.8355 125.575 94.3898 128.902 95.1127C132.598 95.8355 135.924 98.3656 138.512 102.703C148.121 118.245 136.294 125.835 136.294 125.835L121.14 138.124ZM106.356 85.7153C105.986 85.7153 105.247 85.7153 104.877 86.0768C103.768 86.7996 103.029 87.5225 102.659 88.9683C100.811 94.3898 105.616 104.149 107.464 107.401L121.51 134.148L134.816 123.666C135.185 123.305 144.425 117.522 136.294 104.149C134.076 100.534 131.489 98.3656 128.902 98.0041C125.575 97.6427 122.988 99.4499 122.249 100.173L121.51 100.534H120.77C120.031 100.534 119.662 100.173 119.292 99.4499C118.553 98.0042 116.335 93.6669 113.378 90.0526C111.16 88.2454 108.573 85.7153 106.356 85.7153Z" fill="black"/>
<path d="M115.323 109.867L112.695 111.192L120.997 126.932L123.625 125.606L115.323 109.867Z" fill="black"/>
<path d="M117.813 94.3897L130.011 87.8838L132.598 92.9439L120.401 99.0883L117.813 94.3897Z" fill="black"/>
<path d="M138.142 123.666L144.056 121.136L150.709 116.437L152.927 110.654V105.233L152.187 103.426L141.099 109.209L141.838 113.546L140.36 118.606L138.142 123.666Z" fill="black"/>
</svg>
