<svg width="32" height="32" viewBox="0 0 32 32" fill="none" xmlns="http://www.w3.org/2000/svg">
<path d="M15.9996 10.6667C13.0529 10.6667 10.6662 13.0533 10.6662 16C10.6662 18.9467 13.0529 21.3333 15.9996 21.3333C18.9462 21.3333 21.3329 18.9467 21.3329 16C21.3329 13.0533 18.9462 10.6667 15.9996 10.6667ZM27.9196 14.6667C27.3062 9.10668 22.8929 4.69334 17.3329 4.08001V1.33334H14.6662V4.08001C9.10622 4.69334 4.69289 9.10668 4.07955 14.6667H1.33289V17.3333H4.07955C4.69289 22.8933 9.10622 27.3067 14.6662 27.92V30.6667H17.3329V27.92C22.8929 27.3067 27.3062 22.8933 27.9196 17.3333H30.6662V14.6667H27.9196ZM15.9996 25.3333C10.8462 25.3333 6.66622 21.1533 6.66622 16C6.66622 10.8467 10.8462 6.66668 15.9996 6.66668C21.1529 6.66668 25.3329 10.8467 25.3329 16C25.3329 21.1533 21.1529 25.3333 15.9996 25.3333Z" fill="black" fill-opacity="0.87"/>
</svg>
